<svg xmlns="http://www.w3.org/2000/svg" xml:space="preserve" style="enable-background:new 0 0 103 109.8" viewBox="0 0 103 109.8"><style>.st2{fill:#fff}</style><circle cx="87.2" cy="94" r="15.6" style="fill:#00b4f5"/><circle cx="15.6" cy="15.6" r="15.6" style="fill:#ff5e4d"/><circle cx="87.2" cy="15.6" r="15.6" class="st2"/><circle cx="15.6" cy="94" r="15.6" class="st2"/><path d="M15.6 70.3c2.2.2 14.2-2.1 23.7-4 8-1.6 16.2-1.6 24.1 0 9.5 1.9 21.6 4.1 23.7 4 8.6-.2 15.4-7.4 15.2-16-.2-8.3-6.9-15-15.2-15.2-3.3 0-14.6 2.1-23.7 3.9-8 1.6-16.3 1.6-24.3 0-9-1.8-20.4-3.9-23.6-3.9C7 39.4.2 46.6.4 55.2c.2 8.3 6.9 14.9 15.2 15.1z" class="st2"/><path id="b9e656b2-8602-4a8f-a358-c2cfbd153df6" d="M-51.4-47.9H154v205.4H-51.4z" style="fill:none"/></svg>
