<svg
  id="svg"
  version="1.1"
  xmlns="http://www.w3.org/2000/svg"
  style="display: block;"
  viewBox="0 0 225 225"
><path
    d="M0 0 C74.25 0 148.5 0 225 0 C225 74.25 225 148.5 225 225 C150.75 225 76.5 225 0 225 C0 150.75 0 76.5 0 0 Z "
    transform="translate(0,0)"
    style="fill: #356097;"
  /><path
    d="M0 0 C74.25 0 148.5 0 225 0 C225 74.25 225 148.5 225 225 C150.75 225 76.5 225 0 225 C0 150.75 0 76.5 0 0 Z M85 7 C83.88882813 7.26683594 82.77765625 7.53367187 81.6328125 7.80859375 C55.87283392 14.89416243 32.36170165 33.45344211 18.9453125 56.4296875 C4.83584471 82.02193681 -0.90308944 111.28218939 7 140 C7.31070435 141.14166626 7.31070435 141.14166626 7.62768555 142.30639648 C9.3243206 148.28135163 11.50615662 153.83921162 14.1875 159.4375 C14.78014648 160.67681274 14.78014648 160.67681274 15.38476562 161.94116211 C18.60929407 168.5146858 22.2828035 174.37951055 27 180 C27.69738281 180.8353125 28.39476563 181.670625 29.11328125 182.53125 C47.00535235 203.12461069 72.1168566 218.43713037 99.76025391 220.85498047 C113.36269157 221.73571384 126.86040196 221.95790331 140 218 C141.18078125 217.67128906 142.3615625 217.34257812 143.578125 217.00390625 C171.85233004 208.45657858 195.2743053 189.17581317 209.2878418 163.1796875 C222.92859691 136.65870543 224.16516981 106.8816151 216.3125 78.4375 C208.65071329 55.24975304 192.96133061 33.80233167 172 21 C171.1028125 20.41992188 170.205625 19.83984375 169.28125 19.2421875 C144.00197838 3.54457529 113.70786418 0.07774883 85 7 Z "
    transform="translate(0,0)"
    style="fill: #FDFEFE;"
  /><path
    d="M0 0 C5.94 2.97 11.88 5.94 18 9 C18 41.01 18 73.02 18 106 C3.81 106 -10.38 106 -25 106 C-25 73.99 -25 41.98 -25 9 C-5 -1 -5 -1 0 0 Z "
    transform="translate(116,48)"
    style="fill: #FCFCFD;"
  /><path
    d="M0 0 C10.89036271 3.6301209 20.81523888 9.70392422 31 15 C31 38.76 31 62.52 31 87 C20.77 87 10.54 87 0 87 C0 58.29 0 29.58 0 0 Z "
    transform="translate(153,67)"
    style="fill: #FEFEFE;"
  /><path
    d="M0 0 C0 28.71 0 57.42 0 87 C-10.23 87 -20.46 87 -31 87 C-31 63.24 -31 39.48 -31 15 C-2 0 -2 0 0 0 Z "
    transform="translate(72,67)"
    style="fill: #FEFEFE;"
  /></svg>
