<svg
  xmlns="http://www.w3.org/2000/svg"
  xmlns:xlink="http://www.w3.org/1999/xlink"
  width="744"
  height="855"
  viewBox="0 0 744 855"
>
  <defs>
    <clipPath id="clip-cobalt-white-mark-only">
      <rect width="744" height="855" />
    </clipPath>
  </defs>
  <g id="cobalt-white-mark-only" clip-path="url(#clip-cobalt-white-mark-only)">
    <g id="markOnly-white" transform="translate(-231.189 -190.052)">
      <g id="logoNoLabel" transform="translate(231 190)">
        <path
          id="Fill-1"
          d="M600.583,698.829a6.981,6.981,0,0,1-2.55,9.531l-14,8.1a6.843,6.843,0,0,1-9.355-2.507l-27.184-47.135a6.773,6.773,0,0,0-8.789-2.733,259.323,259.323,0,0,1-90.565,24.482,6.828,6.828,0,0,0-6.277,6.8v54.2A6.869,6.869,0,0,1,435,756.433H418.862a6.994,6.994,0,0,1-6.99-7V695.359a6.777,6.777,0,0,0-6.25-6.755,259.579,259.579,0,0,1-90.685-24.182,6.891,6.891,0,0,0-8.924,2.789l-26.885,46.626a6.969,6.969,0,0,1-9.527,2.556l-13.99-8.09a6.868,6.868,0,0,1-2.509-9.378l26.937-46.72a6.9,6.9,0,0,0-2.048-9.116,263.05,263.05,0,0,1-66.481-66.455,6.8,6.8,0,0,0-8.992-2.016l-46.573,26.923A6.925,6.925,0,0,1,146.477,599l-7.993-13.859a7.084,7.084,0,0,1,2.589-9.672l46.421-26.836a6.8,6.8,0,0,0,2.736-8.807,260.4,260.4,0,0,1-24.365-90.92,6.835,6.835,0,0,0-6.8-6.3H105.438a7,7,0,0,1-6.99-7V419.428a6.85,6.85,0,0,1,6.846-6.855h53.668a6.943,6.943,0,0,0,6.912-6.4A260.384,260.384,0,0,1,190.2,315.395a6.859,6.859,0,0,0-2.76-8.883l-46.435-26.851a7.013,7.013,0,0,1-2.562-9.573l8.018-13.9a6.952,6.952,0,0,1,9.5-2.549l46.56,26.923a6.782,6.782,0,0,0,8.974-2.011,263.073,263.073,0,0,1,66.539-66.5,6.833,6.833,0,0,0,2.029-9.035l-26.961-46.761a6.881,6.881,0,0,1,2.513-9.392l13.993-8.09a6.953,6.953,0,0,1,9.508,2.551l26.93,46.7a6.808,6.808,0,0,0,8.819,2.757,259.534,259.534,0,0,1,90.7-24.209,6.837,6.837,0,0,0,6.3-6.813v-53.95a7.066,7.066,0,0,1,7.062-7.073h16.034a6.9,6.9,0,0,1,6.894,6.9V159.8a6.828,6.828,0,0,0,6.277,6.8,259.33,259.33,0,0,1,90.475,24.438,6.882,6.882,0,0,0,8.927-2.774l27.12-47.023a6.876,6.876,0,0,1,9.4-2.521l13.948,8.064a7.013,7.013,0,0,1,2.561,9.575l-27.106,47a6.905,6.905,0,0,0,2.043,9.119,264.381,264.381,0,0,1,37.342,31.428,22.9,22.9,0,0,0,31.045,1.607L736.4,168.035c9.629-8.064,10.311-22.909,1.965-32.36C648.826,40.751,527.506-6.618,401.359.809,194.089,12.584,18.875,175.576,1.222,394.744c-17.071,254.5,179.812,457.815,425.286,459.909,123.952-1.415,233.407-52.924,308.775-132.543a25.972,25.972,0,0,0-2.219-37.775l-91.225-76.4a19.921,19.921,0,0,0-27.123,1.411,264.3,264.3,0,0,1-39.286,33.4,6.8,6.8,0,0,0-2.013,8.987Z"
          fill="#fff"
        />
        <path
          id="Fill-3"
          d="M428.945,467.737a41.462,41.462,0,1,1,39.2-39.245,41.438,41.438,0,0,1-39.2,39.245m30.988-163.982c-68.761-17.471-131.646,21.4-152.47,80.2a7.1,7.1,0,0,0,3.176,8.489l48.3,27.92a6.893,6.893,0,0,1,0,11.931l-48.348,27.951a7.022,7.022,0,0,0-3.146,8.39,126.64,126.64,0,0,0,119.354,84.479c81,0,144.241-76.161,122.186-160.87-10.065-38.654-50.377-78.667-89.046-88.492"
          fill="#fff"
        />
      </g>
    </g>
  </g>
</svg>
