<?xml version="1.0" encoding="utf-8" ?>
<!-- Generator: Adobe Illustrator 21.0.0, SVG Export Plug-In . SVG Version: 6.00 Build 0)  -->
<svg
  version="1.1"
  id="Layer_1"
  xmlns="http://www.w3.org/2000/svg"
  xmlns:xlink="http://www.w3.org/1999/xlink"
  x="0px"
  y="0px"
  viewBox="0 0 72 72"
  style="enable-background:new 0 0 72 72;"
  xml:space="preserve"
>
<style type="text/css">
.st0 {
  fill: #fb8b24;
}
  </style>
<path
    class="st0"
    d="M72,15.8L54.8,0l-1.7,8.5l-23-0.1C19,8.3,7.2,15.1,7.1,27.8c0,10.8,8.9,15.6,15.4,19c3.6,1.9,6.8,3.6,6.8,5.5
	c0,4.4-6.1,4.4-6.4,4.4L3.2,56.8L0,71.9L22.6,72c12.9,0,23.1-8.5,23.1-19.5c0-10.9-8.9-15.5-15.4-18.9c-3.7-1.9-7-3.6-7-5.7
	c0-3.3,4.4-4.3,6.5-4.3l20.3,0.1l-1.6,8.2L72,15.8z"
  />
</svg>
